<svg width="256" height="256" viewBox="0 0 256 256" fill="none" xmlns="http://www.w3.org/2000/svg" role="img" aria-labelledby="title desc">
  <title id="title">hackaboard symbol</title>
  <desc id="desc">Rounded square neon symbol with angled brackets and a central letter a.</desc>
  <defs>
    <radialGradient id="bgGlow" cx="0" cy="0" r="1" gradientUnits="userSpaceOnUse" gradientTransform="translate(128 128) rotate(90) scale(128)">
      <stop offset="0" stop-color="#0F2230"/>
      <stop offset="1" stop-color="#03070C"/>
    </radialGradient>
    <linearGradient id="frame" x1="16" y1="16" x2="240" y2="240" gradientUnits="userSpaceOnUse">
      <stop offset="0" stop-color="#7CDFFF"/>
      <stop offset="1" stop-color="#68BFE1"/>
    </linearGradient>
    <linearGradient id="leftBracket" x1="61" y1="128" x2="117" y2="128" gradientUnits="userSpaceOnUse">
      <stop offset="0" stop-color="#28C5FF"/>
      <stop offset="1" stop-color="#46F8B2"/>
    </linearGradient>
    <linearGradient id="rightBracket" x1="139" y1="128" x2="195" y2="128" gradientUnits="userSpaceOnUse">
      <stop offset="0" stop-color="#44F5B6"/>
      <stop offset="1" stop-color="#66FF75"/>
    </linearGradient>
    <filter id="outerGlow" x="0" y="0" width="256" height="256" filterUnits="userSpaceOnUse" color-interpolation-filters="sRGB">
      <feGaussianBlur stdDeviation="8"/>
    </filter>
  </defs>

  <rect x="16" y="16" width="224" height="224" rx="48" fill="url(#bgGlow)" />
  <rect x="16" y="16" width="224" height="224" rx="48" stroke="url(#frame)" stroke-width="4" />

  <g opacity="0.35" filter="url(#outerGlow)">
    <path d="M117 91L71 128L117 165" stroke="url(#leftBracket)" stroke-width="12" stroke-linecap="round" stroke-linejoin="round" />
    <path d="M139 91L185 128L139 165" stroke="url(#rightBracket)" stroke-width="12" stroke-linecap="round" stroke-linejoin="round" />
    <path d="M128 156V120C128 108 137 99 149 99C161 99 170 108 170 120V156H157V147C153 153 145 156 138 156C126 156 117 148 117 137C117 125 126 117 138 117H157"
      stroke="#63DDFF" stroke-width="8" stroke-linecap="round" stroke-linejoin="round" />
  </g>

  <path d="M117 91L71 128L117 165" stroke="url(#leftBracket)" stroke-width="10" stroke-linecap="round" stroke-linejoin="round" />
  <path d="M139 91L185 128L139 165" stroke="url(#rightBracket)" stroke-width="10" stroke-linecap="round" stroke-linejoin="round" />
  <path d="M128 156V120C128 108 137 99 149 99C161 99 170 108 170 120V156H157V147C153 153 145 156 138 156C126 156 117 148 117 137C117 125 126 117 138 117H157"
    stroke="#63DDFF" stroke-width="6" stroke-linecap="round" stroke-linejoin="round" />
</svg>
